<?xml version="1.0" encoding="utf-8"?>
<!-- Generator: Adobe Illustrator 27.0.0, SVG Export Plug-In . SVG Version: 6.00 Build 0)  -->
<svg version="1.1" id="Layer_1" xmlns="http://www.w3.org/2000/svg" xmlns:xlink="http://www.w3.org/1999/xlink" x="0px" y="0px"
	 viewBox="0 0 800 800" style="enable-background:new 0 0 800 800;" xml:space="preserve">
<style type="text/css">
	.st0{fill:#15A5DE;}
	.st1{fill:#1F448F;}
</style>
<g>
	<path class="st0" d="M400.3,0c0,0-118.77,147.35-351.86,140.69c0,0,1.66,258.9,57.44,337.15c0,0,400.42-99.9,430.39-382.1
		C536.27,95.73,418.06,26.92,400.3,0z"/>
	<path class="st1" d="M135.02,544.28c0,0,317.53-55.2,431.29-305.36c0,0-21.73,290.42-371.95,389.72
		C194.36,628.64,159.17,597.41,135.02,544.28z"/>
	<path class="st0" d="M601.21,116.27c0,0,61.05,27.75,148.73,25.53c0,0,46.08,461.74-354.34,658.2c0,0-95.72-56.61-159-116.55
		c0,0,69.21-24.85,75.04-29.01c0,0,65.08,54.82,88.67,58.15c0,0,262.45-134.58,273.3-497.54l-87.38-22.75
		C586.22,192.3,601.21,131.81,601.21,116.27z"/>
</g>
</svg>
