<?xml version="1.0" encoding="utf-8"?>
<!-- Generator: Adobe Illustrator 27.0.0, SVG Export Plug-In . SVG Version: 6.00 Build 0)  -->
<svg version="1.1" id="Layer_1" xmlns="http://www.w3.org/2000/svg" xmlns:xlink="http://www.w3.org/1999/xlink" x="0px" y="0px"
	 viewBox="0 0 800 800" style="enable-background:new 0 0 800 800;" xml:space="preserve">
<style type="text/css">
	.st0{fill:#FFFFFF;}
</style>
<rect width="800" height="800"/>
<g>
	<path class="st0" d="M400.3,0c0,0-118.8,147.4-351.9,140.7c0,0,1.7,258.9,57.4,337.1c0,0,400.4-99.9,430.4-382.1
		C536.3,95.7,418.1,26.9,400.3,0z"/>
	<path class="st0" d="M135,544.3c0,0,317.5-55.2,431.3-305.4c0,0-21.7,290.4-372,389.7C194.4,628.6,159.2,597.4,135,544.3z"/>
	<path class="st0" d="M601.2,116.3c0,0,61,27.7,148.7,25.5c0,0,46.1,461.7-354.3,658.2c0,0-95.7-56.6-159-116.5c0,0,69.2-24.8,75-29
		c0,0,65.1,54.8,88.7,58.2c0,0,262.5-134.6,273.3-497.5l-87.4-22.8C586.2,192.3,601.2,131.8,601.2,116.3z"/>
</g>
</svg>
